<svg width="24" height="25" viewBox="0 0 24 25" fill="none" xmlns="http://www.w3.org/2000/svg">
<path d="M19.5456 18.2244C19.7495 18.4283 19.864 18.7047 19.864 18.993C19.864 19.2813 19.7495 19.5577 19.5456 19.7616C19.3418 19.9654 19.0653 20.0799 18.7771 20.0799C18.4888 20.0799 18.2123 19.9654 18.0085 19.7616L12.2677 14.019L6.5251 19.7598C6.32126 19.9636 6.0448 20.0781 5.75653 20.0781C5.46826 20.0781 5.19179 19.9636 4.98796 19.7598C4.78412 19.5559 4.6696 19.2795 4.6696 18.9912C4.6696 18.7029 4.78412 18.4265 4.98796 18.2226L10.7306 12.4818L4.98976 6.73922C4.78592 6.53538 4.67141 6.25892 4.67141 5.97064C4.67141 5.68237 4.78592 5.40591 4.98976 5.20207C5.1936 4.99823 5.47007 4.88372 5.75834 4.88372C6.04661 4.88372 6.32307 4.99823 6.52691 5.20207L12.2677 10.9447L18.0103 5.20117C18.2141 4.99733 18.4906 4.88281 18.7789 4.88281C19.0672 4.88281 19.3436 4.99733 19.5475 5.20117C19.7513 5.405 19.8658 5.68147 19.8658 5.96974C19.8658 6.25801 19.7513 6.53448 19.5475 6.73831L13.8049 12.4818L19.5456 18.2244Z" fill="#1E123B"/>
</svg>
