<svg width="24" height="25" viewBox="0 0 24 25" fill="none" xmlns="http://www.w3.org/2000/svg">
<g clip-path="url(#clip0_59_19)">
<path fill-rule="evenodd" clip-rule="evenodd" d="M19.7757 3.95581C19.2331 3.41337 18.4972 3.10864 17.73 3.10864C16.9628 3.10864 16.2269 3.41337 15.6843 3.95581L15.0024 4.63866L19.7766 9.41286L20.4576 8.73097C20.7263 8.46228 20.9395 8.14329 21.0849 7.79221C21.2304 7.44112 21.3052 7.06483 21.3052 6.68482C21.3052 6.3048 21.2304 5.92851 21.0849 5.57743C20.9395 5.22634 20.7263 4.90735 20.4576 4.63866L19.7757 3.95581ZM18.4119 10.7766L13.6377 6.00244L4.87053 14.7706C4.67868 14.9625 4.54466 15.2044 4.48377 15.4689L3.49132 19.7656C3.45434 19.9252 3.45858 20.0915 3.50364 20.2489C3.54871 20.4063 3.63311 20.5497 3.74889 20.6654C3.86468 20.7812 4.00803 20.8656 4.16546 20.9107C4.32288 20.9558 4.48918 20.96 4.6487 20.923L8.94644 19.9315C9.21052 19.8705 9.45214 19.7365 9.64377 19.5448L18.4119 10.7766Z" fill="#1E123B"/>
</g>
<defs>
<clipPath id="clip0_59_19">
<rect width="23.1476" height="23.1476" fill="white" transform="translate(0.359619 0.908203)"/>
</clipPath>
</defs>
</svg>
